Coordinates
version=1
nRows=10
nColumns=63
inDegrees=yes

Units are S.I. units (second, meters, Newtons, ...)
If the header above contains a line with 'inDegrees', this indicates whether rotational values are in degrees (yes) or radians (no).

endheader
time	pelvis_tilt	pelvis_list	pelvis_rotation	pelvis_tx	pelvis_ty	pelvis_tz	hip_flexion_r	hip_adduction_r	hip_rotation_r	knee_angle_r	knee_angle_r_beta	ankle_angle_r	subtalar_angle_r	mtp_angle_r	hip_flexion_l	hip_adduction_l	hip_rotation_l	knee_angle_l	knee_angle_l_beta	ankle_angle_l	subtalar_angle_l	mtp_angle_l	L5_S1_Flex_Ext	L5_S1_Lat_Bending	L5_S1_axial_rotation	L4_L5_Flex_Ext	L4_L5_Lat_Bending	L4_L5_axial_rotation	L3_L4_Flex_Ext	L3_L4_Lat_Bending	L3_L4_axial_rotation	L2_L3_Flex_Ext	L2_L3_Lat_Bending	L2_L3_axial_rotation	L1_L2_Flex_Ext	L1_L2_Lat_Bending	L1_L2_axial_rotation	L1_T12_Flex_Ext	L1_T12_Lat_Bending	L1_T12_axial_rotation	Abs_r3	Abs_r2	Abs_r1	Abs_t1	Abs_t2	neck_flexion	neck_bending	neck_rotation	arm_flex_r	arm_add_r	arm_rot_r	elbow_flex_r	pro_sup_r	wrist_flex_r	wrist_dev_r	arm_flex_l	arm_add_l	arm_rot_l	elbow_flex_l	pro_sup_l	wrist_flex_l	wrist_dev_l
      0.00000000	     -3.27658152	     -3.82165872	     81.98394876	      0.11313652	      0.97636440	      0.31001356	      1.98476004	     -2.01789880	    -13.80083046	      7.71031109	      0.13457031	     23.05912452	     16.70396986	      0.00000000	      2.79843730	      3.57042873	     -3.18649615	      8.86236170	      0.15467739	     15.17388768	    -13.55782468	      0.00000000	      0.12820103	     -0.26835666	      1.21105185	      0.23808213	     -0.35691435	      1.28674259	      0.21062147	     -0.65248237	      1.28674259	      0.14652095	     -0.65248237	      1.05967037	      0.11904747	     -0.54723289	      0.98397963	      0.07325407	     -0.41568446	      0.90828889	      0.91572711	     -3.03570416	      6.73550707	      0.00000000	      0.00000000	     14.38674357	      3.05857358	     -8.69618200	     27.72280613	     -5.76624787	     62.43440535	     61.15239554	     17.41293967	     -5.50391759	      5.30704867	     30.06988850	     -8.16077736	     74.50268864	     36.58879917	     58.15709744	     -6.19672473	      1.49232659
      0.01666667	     -3.71932070	     -3.47882691	     81.96305453	      0.11390363	      0.97608239	      0.31080558	      1.65054983	     -2.52566009	    -14.23770177	      8.14264630	      0.14211599	     22.94067286	     16.29280726	      0.00000000	      2.60624565	      4.03417738	     -3.65588298	      9.15789588	      0.15983544	     14.32908429	    -14.03860192	      0.00000000	      0.09482258	     -0.33579408	      1.08024413	      0.17609501	     -0.44660613	      1.14775938	      0.15578402	     -0.81644973	      1.14775938	      0.10837273	     -0.81644973	      0.94521361	      0.08805225	     -0.68475129	      0.87769835	      0.05418162	     -0.52014503	      0.81018309	      0.67730821	     -3.79856983	      6.00799375	      0.00000000	      0.00000000	     13.98271861	      2.91618322	     -9.03655664	     27.17376841	     -4.81828410	     61.42536673	     61.13258418	     17.67051483	     -4.80094872	      5.74335924	     29.30395209	     -8.17459072	     70.61563354	     36.41439207	     55.84860425	     -6.31298128	      1.38953109
      0.03333333	     -3.82784299	     -3.57177925	     81.98557130	      0.11404120	      0.97530856	      0.31068421	      1.60203628	     -2.66220779	    -14.49781700	      8.27675826	      0.14445668	     22.64717629	     16.45299682	      0.00000000	      2.55199899	      4.22365615	     -2.84107100	      8.99166589	      0.15693418	     13.90479094	    -15.31836421	      0.00000000	      0.13783135	     -0.34196284	      0.83286698	      0.25596660	     -0.45481058	      0.88492117	      0.22644312	     -0.83144845	      0.88492117	      0.15752745	     -0.83144845	      0.72875861	      0.12799019	     -0.69733062	      0.67670442	      0.07875683	     -0.52970044	      0.62465023	      0.98451554	     -3.86835203	      4.63215628	      0.00000000	      0.00000000	     13.83416427	      2.81148677	     -8.20512550	     26.93161410	     -3.96382289	     61.20261547	     60.66621551	     20.78753494	     -1.60666423	      7.35866388	     26.95310365	     -8.76414182	     62.48120634	     37.98189765	     59.69495173	     -4.02528560	      5.02111493
      0.05000000	     -4.03845953	     -3.44198344	     82.00468694	      0.11416174	      0.97527377	      0.31106138	      1.41309754	     -2.92924669	    -14.74488784	      8.39739045	      0.14656211	     22.47653351	     16.49625469	      0.00000000	      2.43523886	      4.47438370	     -2.87473184	      9.02156130	      0.15745595	     13.63182457	    -15.43279734	      0.00000000	      0.13531176	     -0.36753414	      0.73081605	      0.25128748	     -0.48882041	      0.77649206	      0.22230370	     -0.89362251	      0.77649206	      0.15464781	     -0.89362251	      0.63946405	      0.12565050	     -0.74947562	      0.59378804	      0.07731714	     -0.56931039	      0.54811204	      0.96651840	     -4.15761972	      4.06457964	      0.00000000	      0.00000000	     13.50947305	      2.75346065	     -7.94653993	     26.87187800	     -3.75595164	     61.44534739	     60.73759945	     22.26544352	      0.48720859	      6.95632454	     26.05952377	     -9.10111511	     59.27124858	     38.89357844	     66.78115909	     -2.06550177	      7.06247107
      0.06666667	     -4.24319359	     -3.22576343	     82.06082719	      0.11418797	      0.97561233	      0.31170432	      1.17554479	     -3.20650251	    -14.98079467	      8.48594230	      0.14810763	     22.29882543	     16.55988200	      0.00000000	      2.26100126	      4.73219408	     -2.90896008	      9.04009575	      0.15777944	     13.46145442	    -15.39114147	      0.00000000	      0.11414912	     -0.39542759	      0.71894250	      0.21198634	     -0.52591869	      0.76387641	      0.18753559	     -0.96144263	      0.76387641	      0.13046103	     -0.96144263	      0.62907469	      0.10599888	     -0.80635593	      0.58414078	      0.06522481	     -0.61251733	      0.53920687	      0.81535577	     -4.47315594	      3.99854250	      0.00000000	      0.00000000	     13.14511862	      2.79345822	     -7.95923521	     26.95475600	     -3.98308210	     61.95327459	     61.01361877	     23.14946142	      2.11927651	      5.65592686	     26.70661196	     -9.62008632	     61.58925639	     39.59274923	     71.35976482	     -0.80547940	      8.09340934
      0.08333333	     -4.32290135	     -3.14993411	     82.00686559	      0.11414880	      0.97588643	      0.31206000	      1.07327578	     -3.34214790	    -15.05737296	      8.51790652	      0.14866551	     22.06744259	     16.71404250	      0.00000000	      2.17872356	      4.84247295	     -2.97351363	      8.99713834	      0.15702969	     13.49679331	    -15.13693169	      0.00000000	      0.11197082	     -0.40601137	      0.72666403	      0.20794101	     -0.53999513	      0.77208053	      0.18395686	     -0.98717605	      0.77208053	      0.12797145	     -0.98717605	      0.63583103	      0.10397611	     -0.82793839	      0.59041453	      0.06398013	     -0.62891162	      0.54499802	      0.79979639	     -4.59288186	      4.04148735	      0.00000000	      0.00000000	     12.86858341	      2.74866690	     -8.15373077	     26.92662071	     -4.34517987	     62.22299776	     61.33460294	     24.39784484	      3.63732606	      4.74882868	     26.31369279	     -9.87336371	     60.05250497	     40.69123090	     85.09615105	      3.03787561	      9.01478750
      0.10000000	     -4.48475280	     -2.96523805	     82.08223419	      0.11403044	      0.97636960	      0.31253536	      0.86816958	     -3.57997376	    -15.21161283	      8.57115087	      0.14959480	     21.81259848	     16.75785373	      0.00000000	      2.03282775	      5.04804629	     -3.04240266	      8.98166654	      0.15675965	     13.53436269	    -14.92731572	      0.00000000	      0.09293229	     -0.43211488	      0.76984825	      0.17258455	     -0.57471278	      0.81796376	      0.15267846	     -1.05064411	      0.81796376	      0.10621231	     -1.05064411	      0.67361722	      0.08629692	     -0.88116865	      0.62550170	      0.05310151	     -0.66934594	      0.57738619	      0.66380604	     -4.88816990	      4.28166500	      0.00000000	      0.00000000	     12.55449781	      2.87021280	     -8.47356377	     26.94133236	     -4.91527719	     62.49907724	     61.77609785	     23.84888584	      4.09199366	      4.25526028	     27.41022696	    -10.26016836	     63.90397379	     41.40782787	     87.44803262	      4.93675266	      9.51203535
      0.11666667	     -4.68094241	     -2.83334478	     82.14916424	      0.11405614	      0.97683144	      0.31315131	      0.73367456	     -3.83475767	    -15.31175403	      8.60075838	      0.15011155	     21.52649462	     16.78605056	      0.00000000	      1.95427708	      5.25479808	     -3.18349878	      8.93030564	      0.15586324	     13.62418515	    -14.54506514	      0.00000000	      0.07646030	     -0.46844469	      0.86135589	      0.14199442	     -0.62303144	      0.91519064	      0.12561662	     -1.13897642	      0.91519064	      0.08738648	     -1.13897642	      0.75368641	      0.07100103	     -0.95525241	      0.69985166	      0.04368941	     -0.72562082	      0.64601692	      0.54614827	     -5.29914000	      4.79060307	      0.00000000	      0.00000000	     12.28920155	      3.05198396	     -9.27464274	     26.71101043	     -5.56373575	     62.23654598	     62.22814006	     22.34992741	      4.01002823	      4.40096467	     28.94631271	    -10.42976630	     68.65223251	     41.89200724	     88.30270013	      6.97318257	      9.66028849
      0.13333333	     -4.78460820	     -2.69288579	     82.05815905	      0.11407327	      0.97729850	      0.31354689	      0.62930615	     -4.01671447	    -15.27995024	      8.71021088	      0.15202186	     21.25282124	     16.80977675	      0.00000000	      1.83395076	      5.35317317	     -3.75947790	      8.86439554	      0.15471289	     13.94080113	    -13.85162819	      0.00000000	      0.05808281	     -0.49837868	      1.02958573	      0.10786558	     -0.66284365	      1.09393484	      0.09542425	     -1.21175793	      1.09393484	      0.06638284	     -1.21175793	      0.90088751	      0.05393570	     -1.01629381	      0.83653841	      0.03318852	     -0.77198858	      0.77218930	      0.41487969	     -5.63775932	      5.72624696	      0.00000000	      0.00000000	     12.07097977	      3.10744045	    -10.85934249	     26.03039123	     -6.42048216	     61.06085487	     63.16518481	     19.39384420	      2.12025126	      5.34130424	     30.68769932	    -10.10692113	     74.30005878	     41.72788010	     88.45410043	      6.73636001	      7.51853238
      0.15000000	     -5.00200658	     -2.59811628	     82.14763108	      0.11386677	      0.97766012	      0.31370888	      0.50001724	     -4.30630421	    -15.43882673	      8.72559515	      0.15229036	     20.99557307	     16.76885652	      0.00000000	      1.77990036	      5.59135404	     -3.80650243	      8.77909298	      0.15322408	     14.05605558	    -13.67597224	      0.00000000	      0.05005309	     -0.53587557	      1.05184119	      0.09295359	     -0.71271451	      1.11758126	      0.08223222	     -1.30292787	      1.11758126	      0.05720568	     -1.30292787	      0.92036104	      0.04647930	     -1.09275747	      0.85462096	      0.02860034	     -0.83007126	      0.78888089	      0.35752422	     -6.06193165	      5.85002513	      0.00000000	      0.00000000	     11.86597406	      3.42781183	    -11.43989003	     25.35643508	     -6.50569550	     59.48307675	     63.12330766	     16.90473968	      0.67266154	      6.84840368	     31.32818326	    -10.00187284	     76.13194424	     41.98609528	     88.58540561	      8.10658821	      7.44623349
